<svg xmlns="http://www.w3.org/2000/svg" width="256" height="256" viewBox="0 0 100 100"><rect width="100" height="100" rx="20" fill="#041a4c"></rect><path d="M30.78 70.49Q25.32 70.49 21.23 68.14Q17.14 65.78 14.91 61.47Q12.68 57.16 12.68 51.33L12.68 51.33Q12.68 44.95 15.40 39.99Q18.13 35.03 23.09 32.27Q28.05 29.51 34.44 29.51L34.44 29.51Q36.73 29.51 39.40 29.85Q42.06 30.19 43.99 30.53Q45.91 30.87 46.47 31.00L46.47 31.00L46.71 31.37Q46.59 31.74 46.28 33.17Q45.97 34.59 45.63 36.89Q45.29 39.18 45.10 41.72L45.10 41.72L42.19 41.97Q42.25 41.66 42.31 40.76Q42.37 39.86 42.37 38.62L42.37 38.62Q42.37 35.77 40.17 34.47Q37.97 33.17 33.01 33.17L33.01 33.17Q25.94 33.17 22.01 37.41Q18.07 41.66 18.07 49.35L18.07 49.35Q18.07 54.74 19.81 58.84Q21.54 62.93 24.77 65.16Q27.99 67.39 32.21 67.39L32.21 67.39Q34.44 67.39 36.30 66.86Q38.16 66.34 39.43 65.72Q40.70 65.10 40.70 65.03L40.70 65.03L40.70 57.47Q40.70 55.36 40.05 54.74Q39.40 54.12 37.29 54.12L37.29 54.12L33.01 54.12L32.89 53.88L33.45 50.77Q34.19 50.84 36.61 50.93Q39.03 51.02 41.32 51.02L41.32 51.02Q42.99 51.02 44.61 50.90Q46.22 50.77 46.65 50.71L46.65 50.71L46.90 52.08Q45.78 53.01 45.38 55.02Q44.98 57.04 44.98 61.63L44.98 61.63Q44.98 65.22 45.41 67.08L45.41 67.08L45.04 67.64Q45.04 67.70 42.84 68.48Q40.64 69.25 37.45 69.87Q34.25 70.49 30.78 70.49L30.78 70.49ZM72.57 70.49Q66.99 70.49 62.77 68.14Q58.56 65.78 56.29 61.47Q54.03 57.16 54.03 51.33L54.03 51.33Q54.03 45.13 56.82 40.14Q59.61 35.15 64.54 32.33Q69.47 29.51 75.67 29.51L75.67 29.51Q77.96 29.51 80.35 29.85Q82.74 30.19 84.38 30.53Q86.02 30.87 86.46 31.00L86.46 31.00L86.70 31.37Q86.58 31.74 86.30 33.17Q86.02 34.59 85.68 36.89Q85.34 39.18 85.15 41.72L85.15 41.72L82.18 41.97Q82.24 41.66 82.30 40.82Q82.36 39.99 82.36 38.93L82.36 38.93Q82.36 33.17 73.25 33.17L73.25 33.17Q69.16 33.17 66.06 35.15Q62.96 37.13 61.28 40.76Q59.61 44.39 59.61 49.29L59.61 49.29Q59.61 54.68 61.38 58.77Q63.14 62.87 66.37 65.13Q69.59 67.39 73.81 67.39L73.81 67.39Q78.02 67.39 80.60 65.00Q83.17 62.62 84.35 57.59L84.35 57.59L87.32 57.35Q87.14 58.28 86.52 61.47Q85.90 64.66 85.65 67.45L85.65 67.45L85.28 68.01Q85.28 68.07 83.39 68.72Q81.50 69.38 78.67 69.93Q75.85 70.49 72.57 70.49L72.57 70.49Z" fill="#fff"></path></svg>